{"title":"The.Best.Of.Bob.Hope.Fifty.Years.Of.Laughter.2002.Vol2.DVDRip.Xv","uid":6241071,"size":738385648,"categoryP":"video","categoryS":"movies","magnet":"?xt=urn:btih:bbafb03746231bfc75aba65c236730a88e18eeb7&amp;dn=The.Best.Of.Bob.Hope.Fifty.Years.Of.Laughter.2002.Vol2.DVDRip.Xv&amp;tr=udp%3A%2F%2Ftracker.openbittorrent.com%3A80&amp;tr=udp%3A%2F%2Fopen.demonii.com%3A1337&amp;tr=udp%3A%2F%2Ftracker.coppersurfer.tk%3A6969&amp;tr=udp%3A%2F%2Fexodus.desync.com%3A6969","seeders":0,"leechers":1,"uploader":"TvTeam","files":5,"time":1300064891,"description":". \n  &lt;a href=&quot;\nhttp://www.torrenting.com/&quot; rel=&quot;nofollow&quot; target=&quot;_NEW&quot;&gt;\nhttp://www.torrenting.com/&lt;/a&gt;        :     Greatest Movie Tracker on The Net!!!\n &lt;a href=&quot;\nhttp://www.Torrenting.com&quot; rel=&quot;nofollow&quot; target=&quot;_NEW&quot;&gt;\nhttp://www.Torrenting.com&lt;/a&gt;          :     Once &amp; For all ;)\n\n\n               www . Torrenting . Com \n\n(((((((((((((= Enjoy No RAR releases =))))))))))))))))))))\n\n\n...................................NFO:....................................\n\n.                                             \n                               \n                                 \n                                      \n                                      \n                                       \n    CoaX!&lt;CPH&gt;                         \n                               \n                         \n                            \n          \n    Team FiCO &lt;Final Coalition&gt; 2k8 Presents:    \n    \n\nThe.Best.Of.Bob.Hope.Fifty.Years.Of.Laughter.2002.Vol1.DVDRip.XviD-FiCO &lt;a href=&quot;\nhttp://www.amazon.com/Best-Bob-Hope-Laughter-collection/dp/B000FT699W&quot; rel=&quot;nofollow&quot; target=&quot;_NEW&quot;&gt;\nhttp://www.amazon.com/Best-Bob-Hope-Laughter-collection/dp/B000FT699W&lt;/a&gt;\nSubtitles: None\nDate: 2011.03\n\nGenre: Comedy\nPlot: This Bob Hope Special called &quot;Highlights of a Quarter Century&quot; begins\n his 26th year with NBC in 1975 (he began with NBC radio in 1937) celebrating\n 25 years of Bob Hope Specials and the many celebrities that appeared on them. \nThe clips begin with his very first special, for Frigidaire, on April 9, 1950\n and putting his way through the years to 1975. \n\nStats:\nGeneral\nFormat                           : AVI\nFormat/Info                      : Audio Video Interleave\nFile size                        : 696 MiB\nDuration                         : 51mn 39s\nOverall bit rate                 : 1 884 Kbps\nWriting application              : VirtualDubMod 1.5.10.2 (build 2542/release)\nWriting library                  : VirtualDubMod build 2542/release\n\nVideo\nID                               : 0\nFormat                           : MPEG-4 Visual\nFormat profile                   : Advanced Simple@L5\nFormat settings, BVOP            : Yes\nFormat settings, QPel            : No\nFormat settings, GMC             : No warppoints\nFormat settings, Matrix          : Default (H.263)\nCodec ID                         : XVID\nCodec ID/Hint                    : XviD\nDuration                         : 51mn 39s\nBit rate                         : 1 552 Kbps\nWidth                            : 608 pixels\nHeight                           : 448 pixels\nDisplay aspect ratio             : 4:3\nFrame rate                       : 29.970 fps\nResolution                       : 8 bits\nColorimetry                      : 4:2:0\nScan type                        : Progressive\nBits/(Pixel*Frame)               : 0.190\nStream size                      : 573 MiB (82%)\nWriting library                  : XviD 61\n\nAudio\nID                               : 1\nFormat                           : AC-3\nFormat/Info                      : Audio Coding 3\nFormat_Settings_ModeExtension    : CM (complete main)\nCodec ID                         : 2000\nDuration                         : 51mn 39s\nBit rate mode                    : Constant\nBit rate                         : 320 Kbps\nChannel(s)                       : 2 channels\nChannel positions                : Front: L R\nSampling rate                    : 48.0 KHz\nStream size                      : 118 MiB (17%)\nAlignment                        : Split accross interleaves\nInterleave, duration             : 33 ms (1.00 video frame)\nInterleave, preload duration     : 500 ms\n\n\n\n\n\nRelease notes:\nenjoy!\n\n\n                                                                     \n                                                             \n                                                               \n                                                               \n                       \n      \n              Greetz from Team FiCO:               \n              \n                                                             \n                                                             \n           BLooDWeiSeR,CULTXviD,SiCK,DoNE,LAP,TH30R1STS              \n                                                                             \n               WinBeta, DvF, WASTE, BERC, KALEVALA, Jiggly                   \n                                                                             \n                                                             \n                                       \n                             \n                      \n                  \n           \n            \n                    \n                  \n                \n                            \n                                        \n                                        \n                                            \n                                                    \n                                                              \n                      you know where to find us...                     \n                        \n   NFO By: CoaXCable/CoolPHat &lt;#CPH&gt;","torrent":{"xt":"urn:btih:bbafb03746231bfc75aba65c236730a88e18eeb7","amp;dn":"The.Best.Of.Bob.Hope.Fifty.Years.Of.Laughter.2002.Vol2.DVDRip.Xv","amp;tr":["udp%3A%2F%2Ftracker.openbittorrent.com%3A80","udp%3A%2F%2Fopen.demonii.com%3A1337","udp%3A%2F%2Ftracker.coppersurfer.tk%3A6969","udp%3A%2F%2Fexodus.desync.com%3A6969"],"infoHash":"bbafb03746231bfc75aba65c236730a88e18eeb7","infoHashBuffer":{"type":"Buffer","data":[187,175,176,55,70,35,27,252,117,171,166,92,35,103,48,168,142,24,238,183]},"announce":[],"urlList":[]}}